<?xml-stylesheet type="text/css" href="../styles/main.css"?><svg xmlns="http://www.w3.org/2000/svg" xmlns:xlink="http://www.w3.org/1999/xlink" viewBox="0 0 124.67 64.65"><defs><style>.cls-1,.cls-3{fill:none;stroke:#000;stroke-width:0.25px;}.cls-1{stroke-miterlimit:10;}.cls-2{clip-path:url(#clip-path);}.cls-3{stroke-linejoin:round;}.cls-4{clip-path:url(#clip-path-2);}.cls-5{clip-path:url(#clip-path-3);}.cls-6{clip-path:url(#clip-path-4);}</style><clipPath id="clip-path"><path class="cls-1" d="M106.28,56.11H92.48V4.87h10.13l3.67,7.34H99.82V26.82h2.79l3.67,7.34H99.82V48.77h2.79Zm11.82-43.9h-6.46L108,4.87H118.1Zm0,21.95h-6.46L108,26.82H118.1Zm0,21.95h-6.46L108,48.77H118.1Z"/></clipPath><clipPath id="clip-path-2"><path class="cls-1" d="M86.61,56.11H79.27V4.87h7.34Z"/></clipPath><clipPath id="clip-path-3"><path class="cls-1" d="M58.5,56.11H44.7V4.87H54.83l3.67,7.34H52V48.77h2.79ZM74,41.5a14.69,14.69,0,0,1-10.42,14l-3.38-6.75a7.31,7.31,0,0,0,6.46-7.27v-22a6.8,6.8,0,0,0-.81-3.23L60.19,4.87A14.64,14.64,0,0,1,74,19.48Z"/></clipPath><clipPath id="clip-path-4"><path class="cls-1" d="M27.52,45.1H19.15l-2.35,11H9.31L19.59,8.18l3.74,17.47L20.69,37.83h5.21Zm14.75,11H34.79l-11-51.24h7.49Z"/></clipPath></defs><title>logo line</title><g id="Layer_2" data-name="Layer 2"><g id="E"><g class="cls-2"><polygon class="cls-3" points="89.79 14.51 101.57 18 96.87 23.19 88.63 18.11 89.79 14.51"/><polygon class="cls-3" points="96.87 23.19 87.66 22.18 88.63 18.11 96.87 23.19"/><polygon class="cls-3" points="88.06 26.41 96.87 23.19 87.66 22.18 88.06 26.41"/><polygon class="cls-3" points="89.41 29.41 100.19 30.54 96.87 23.19 88.06 26.41 89.41 29.41"/><polygon class="cls-3" points="89.79 46.37 95.67 46.79 100.19 30.54 89.41 29.41 89.79 46.37"/><polygon class="cls-3" points="86.95 46.16 92.41 58.51 95.67 46.79 86.95 46.16"/><polygon class="cls-3" points="100.05 60.47 92.41 58.51 95.67 46.79 105.61 47.56 106.53 53.1 100.05 60.47"/><polygon class="cls-3" points="111.17 47.81 105.61 47.56 106.53 53.1 111.17 47.81"/><polygon class="cls-3" points="100.05 60.47 109.4 57.82 106.53 53.1 100.05 60.47"/><polygon class="cls-3" points="116.74 56.99 109.4 57.82 106.53 53.1 111.17 47.81 116.74 56.99"/><polygon class="cls-3" points="124.55 48.89 122.95 58.51 116.74 56.99 111.17 47.81 124.55 48.89"/><polygon class="cls-3" points="100.19 30.54 111.17 47.81 95.67 46.79 100.19 30.54"/><polygon class="cls-3" points="107.82 31.88 100.19 30.54 111.17 47.81 107.82 31.88"/><polygon class="cls-3" points="114.58 33.07 107.82 31.88 109.95 41.99 117.44 38.54 114.58 33.07"/><polygon class="cls-3" points="111.94 23.11 114.58 33.07 107.82 31.88 104.72 24.29 111.94 23.11"/><polygon class="cls-3" points="101.57 18 104.72 24.29 107.82 31.88 100.19 30.54 101.57 18"/><polygon class="cls-3" points="101.57 18 100.19 30.54 96.87 23.19 101.57 18"/><polygon class="cls-3" points="98.53 2.12 101.57 18 108.71 10.11 103.62 1.37 98.53 2.12"/><polygon class="cls-3" points="87.06 3.62 98.53 2.12 101.57 18 89.79 14.51 87.06 5.71 87.06 3.62"/><polygon class="cls-3" points="115.52 2.59 108.71 10.11 103.62 1.37 115.52 2.59"/><polygon class="cls-3" points="120.77 6.43 115.52 2.59 108.71 10.11 109.81 13.03 120.77 6.43"/><polygon class="cls-3" points="109.81 13.03 119.94 13.03 120.77 6.43 109.81 13.03"/><polygon class="cls-3" points="111.94 23.11 120.31 27.44 114.58 33.07 111.94 23.11"/><polygon class="cls-3" points="117.44 38.54 121.35 34.37 120.31 27.44 114.58 33.07 117.44 38.54"/></g><path class="cls-1" d="M106.28,56.11H92.48V4.87h10.13l3.67,7.34H99.82V26.82h2.79l3.67,7.34H99.82V48.77h2.79Zm11.82-43.9h-6.46L108,4.87H118.1Zm0,21.95h-6.46L108,26.82H118.1Zm0,21.95h-6.46L108,48.77H118.1Z"/></g><g id="I"><g class="cls-4"><polygon class="cls-1" points="79.66 21.31 75.02 20.8 76.3 10.52 79.66 21.31"/><polygon class="cls-1" points="80.87 4.63 76.3 10.52 87.06 5.71 87.06 3.62 80.87 4.63"/><polygon class="cls-1" points="81.94 28.64 74.3 39.55 75.46 32.3 81.94 28.64"/><polygon class="cls-1" points="79.66 21.31 81.94 28.64 74.39 26.41 75.02 20.8 79.66 21.31"/><polygon class="cls-1" points="76.3 45.38 86.95 46.16 81.94 28.64 74.3 39.55 76.3 45.38"/><polygon class="cls-1" points="73.06 54.57 92.18 64.41 86.95 46.16 76.3 45.38 73.06 54.57"/><path class="cls-1" d="M79.66,21.31"/><polygon class="cls-1" points="88.63 18.11 87.66 22.18 79.66 21.31 76.3 10.52 88.63 18.11"/><polygon class="cls-1" points="89.79 14.51 76.3 10.52 88.63 18.11 89.79 14.51"/><polygon class="cls-1" points="87.06 5.71 89.79 14.51 76.3 10.52 87.06 5.71"/><polygon class="cls-1" points="72.93 2.3 80.87 4.63 76.3 10.52 72.93 2.3"/><polygon class="cls-1" points="81.94 28.64 88.06 26.41 87.66 22.18 79.66 21.31 81.94 28.64"/><polygon class="cls-1" points="89.41 29.41 89.79 46.37 86.95 46.16 81.94 28.64 89.41 29.41"/><polygon class="cls-1" points="88.06 26.41 89.41 29.41 81.94 28.64 88.06 26.41"/></g><path class="cls-1" d="M86.61,56.11H79.27V4.87h7.34Z"/></g><g id="D"><g class="cls-5"><polygon class="cls-1" points="40.78 7.1 49.24 18.96 36.41 18.68 40.78 7.1"/><polygon class="cls-1" points="45.69 46.65 42.84 54.24 43.17 45.92 45.69 46.65"/><polygon class="cls-1" points="49.24 18.96 39.86 24.86 36.41 18.68 49.24 18.96"/><polygon class="cls-1" points="40.78 7.1 60.14 7.92 60.14 9.98 49.24 18.96 40.78 7.1"/><polygon class="cls-1" points="56.6 3.03 60.14 7.92 40.78 7.1 56.6 3.03"/><polygon class="cls-1" points="43.17 0.14 40.78 7.1 56.6 3.03 43.17 0.14"/><polygon class="cls-1" points="49.24 18.96 46.13 43.19 40.78 42.8 39.86 24.86 49.24 18.96"/><polygon class="cls-1" points="54.13 32.45 47.68 43.3 46.13 43.19 49.24 18.96 54.13 32.45"/><polygon class="cls-1" points="46.13 43.19 45.69 46.65 43.17 45.92 40.78 42.8 46.13 43.19"/><polygon class="cls-1" points="47.68 43.3 45.69 46.65 46.13 43.19 47.68 43.3"/><polygon class="cls-1" points="59.05 53.35 51.9 55.17 55.87 60.47 60.74 59.25 59.05 53.35"/><polygon class="cls-1" points="43.46 57.65 51.9 55.17 45.69 46.65 42.84 54.24 43.46 57.65"/><polygon class="cls-1" points="55.87 60.47 51.9 55.17 43.46 57.65 55.87 60.47"/><polygon class="cls-1" points="45.69 46.65 55.54 47.56 59.05 53.35 51.9 55.17 45.69 46.65"/><polygon class="cls-1" points="54.13 32.45 55.54 47.56 45.69 46.65 54.13 32.45"/><polygon class="cls-1" points="49.24 18.96 59.51 22 54.13 32.45 49.24 18.96"/><polygon class="cls-1" points="60.14 9.98 59.51 22 49.24 18.96 60.14 9.98"/><polygon class="cls-1" points="62.51 8.02 60.14 7.92 60.14 9.98 62.51 8.02"/><polygon class="cls-1" points="72.93 2.3 62.51 8.02 76.3 10.52 72.93 2.3"/><polygon class="cls-1" points="56.6 3.03 72.93 2.3 62.51 8.02 60.14 7.92 56.6 3.03"/><polygon class="cls-1" points="62.51 8.02 60.14 9.98 63.79 19.57 76.3 10.52 62.51 8.02"/><polygon class="cls-1" points="63.79 19.57 75.02 20.8 76.3 10.52 63.79 19.57"/><polygon class="cls-1" points="63.79 19.57 59.51 22 74.39 26.41 75.02 20.8 63.79 19.57"/><polygon class="cls-1" points="45.69 46.65 56.6 49.21 55.54 47.56 45.69 46.65"/><polygon class="cls-1" points="47.68 43.3 55.19 43.76 55.54 47.56 45.69 46.65 47.68 43.3"/><polygon class="cls-1" points="65.83 51.63 64.18 42.09 56.6 49.21 65.83 51.63"/><polygon class="cls-1" points="59.05 53.35 65.83 51.63 56.6 49.21 59.05 53.35"/><polygon class="cls-1" points="60.74 59.25 73.06 54.57 65.83 51.63 59.05 53.35 60.74 59.25"/><polygon class="cls-1" points="70.5 44.96 64.6 44.53 65.83 51.63 70.5 44.96"/><polygon class="cls-1" points="73.06 54.57 76.3 45.38 70.5 44.96 65.83 51.63 73.06 54.57"/><polygon class="cls-1" points="81.94 28.64 55.19 43.76 54.13 32.45 59.51 22 74.39 26.41 81.94 28.64"/><polygon class="cls-1" points="70.5 44.96 64.6 44.53 63.79 38.9 75.46 32.3 74.3 39.55 70.5 44.96"/><polygon class="cls-1" points="59.51 22 63.79 38.9 75.46 32.3 74.39 26.41 59.51 22"/><polygon class="cls-1" points="70.5 44.96 74.3 39.55 76.3 45.38 70.5 44.96"/></g><path class="cls-1" d="M58.5,56.11H44.7V4.87H54.83l3.67,7.34H52V48.77h2.79ZM74,41.5a14.69,14.69,0,0,1-10.42,14l-3.38-6.75a7.31,7.31,0,0,0,6.46-7.27v-22a6.8,6.8,0,0,0-.81-3.23L60.19,4.87A14.64,14.64,0,0,1,74,19.48Z"/></g><g id="A"><g class="cls-6"><polygon class="cls-1" points="22.2 11.71 36.41 18.68 40.78 7.1 22.2 11.71"/><polygon class="cls-1" points="22.2 11.71 13.52 32.06 9.82 14.7 22.2 11.71"/><polygon class="cls-1" points="22.2 11.71 19.05 6.17 9.82 14.7 22.2 11.71"/><polygon class="cls-1" points="40.78 7.1 19.05 6.17 22.2 11.71 40.78 7.1"/><polygon class="cls-1" points="40.78 7.1 27.8 2.5 19.05 6.17 40.78 7.1"/><polygon class="cls-1" points="13.52 32.06 28.1 32.3 14.4 40.88 13.52 32.06"/><polygon class="cls-1" points="16.3 51.63 14.4 40.88 29.7 41.99 16.3 51.63"/><polygon class="cls-1" points="25.45 56.42 29.7 41.99 16.3 51.63 25.45 56.42"/><polygon class="cls-1" points="1.63 54.24 16.3 51.63 15.35 61.03 1.63 54.24"/><polygon class="cls-1" points="25.45 56.42 15.35 61.03 16.3 51.63 25.45 56.42"/><polygon class="cls-1" points="1.63 54.24 16.3 51.63 14.4 40.88 0.8 49.74 1.63 54.24"/><polygon class="cls-1" points="13.52 32.06 10.71 39.14 14.4 40.88 13.52 32.06"/><polygon class="cls-1" points="0.8 49.74 10.71 39.14 14.4 40.88 0.8 49.74"/><polygon class="cls-1" points="29.7 41.99 28.1 32.3 14.4 40.88 29.7 41.99"/><polygon class="cls-1" points="22.2 11.71 28.1 32.3 13.52 32.06 22.2 11.71"/><polygon class="cls-1" points="36.41 18.68 28.1 32.3 22.2 11.71 36.41 18.68"/><polygon class="cls-1" points="28.1 32.3 39.86 24.86 36.41 18.68 28.1 32.3"/><polygon class="cls-1" points="40.78 42.8 28.1 32.3 29.7 41.99 40.78 42.8"/><polygon class="cls-1" points="39.86 24.86 40.78 42.8 28.1 32.3 39.86 24.86"/><polygon class="cls-1" points="29.7 41.99 43.17 45.92 42.84 54.24 41.26 60.09 37.65 56.32 29.7 41.99"/><polygon class="cls-1" points="37.65 56.32 34.55 59.25 29.7 41.99 37.65 56.32"/><polygon class="cls-1" points="40.78 42.8 43.17 45.92 29.7 41.99 40.78 42.8"/></g><path class="cls-1" d="M27.52,45.1H19.15l-2.35,11H9.31L19.59,8.18l3.74,17.47L20.69,37.83h5.21Zm14.75,11H34.79l-11-51.24h7.49Z"/></g></g></svg>
